<mxfile host="app.diagrams.net" modified="2023-03-07T07:53:09.931Z" agent="5.0 (Windows NT 10.0; Win64; x64) AppleWebKit/537.36 (KHTML, like Gecko) Chrome/110.0.0.0 Safari/537.36" etag="D0ZuvMUi_lL3NeLkBTWa" version="20.8.23" type="github">
  <diagram name="第 1 页" id="o8ljjgJDXuDi5uR8yeZR">
    <mxGraphModel dx="2261" dy="1933" grid="1" gridSize="10" guides="1" tooltips="1" connect="1" arrows="1" fold="1" page="1" pageScale="1" pageWidth="827" pageHeight="1169" math="0" shadow="0">
      <root>
        <mxCell id="0" />
        <mxCell id="1" parent="0" />
        <mxCell id="5sS7ZfewBmRh2sbd-nhQ-1" value="" style="rounded=1;whiteSpace=wrap;html=1;absoluteArcSize=1;arcSize=14;strokeWidth=2;" vertex="1" parent="1">
          <mxGeometry x="-100" y="-25" width="830" height="630" as="geometry" />
        </mxCell>
        <mxCell id="5sS7ZfewBmRh2sbd-nhQ-7" value="网络处理层" style="rounded=0;whiteSpace=wrap;html=1;fillColor=#d5e8d4;strokeColor=#82b366;" vertex="1" parent="1">
          <mxGeometry x="560" y="70" width="120" height="40" as="geometry" />
        </mxCell>
        <mxCell id="5sS7ZfewBmRh2sbd-nhQ-8" value="命令处理层" style="rounded=0;whiteSpace=wrap;html=1;fillColor=#d5e8d4;strokeColor=#82b366;" vertex="1" parent="1">
          <mxGeometry x="560" y="140" width="120" height="40" as="geometry" />
        </mxCell>
        <mxCell id="5sS7ZfewBmRh2sbd-nhQ-9" value="读写和并发控制层" style="rounded=0;whiteSpace=wrap;html=1;fillColor=#d5e8d4;strokeColor=#82b366;" vertex="1" parent="1">
          <mxGeometry x="560" y="220" width="120" height="40" as="geometry" />
        </mxCell>
        <mxCell id="5sS7ZfewBmRh2sbd-nhQ-11" value="索引的存储层" style="rounded=0;whiteSpace=wrap;html=1;fillColor=#d5e8d4;strokeColor=#82b366;" vertex="1" parent="1">
          <mxGeometry x="560" y="340" width="120" height="40" as="geometry" />
        </mxCell>
        <mxCell id="5sS7ZfewBmRh2sbd-nhQ-12" value="KV存储引擎" style="rounded=0;whiteSpace=wrap;html=1;fillColor=#d5e8d4;strokeColor=#82b366;" vertex="1" parent="1">
          <mxGeometry x="560" y="440" width="120" height="40" as="geometry" />
        </mxCell>
        <mxCell id="5sS7ZfewBmRh2sbd-nhQ-14" value="" style="shape=doubleArrow;whiteSpace=wrap;html=1;direction=south;" vertex="1" parent="1">
          <mxGeometry x="242.5" y="110" width="15" height="40" as="geometry" />
        </mxCell>
        <mxCell id="5sS7ZfewBmRh2sbd-nhQ-15" value="网络处理模块" style="rounded=1;whiteSpace=wrap;html=1;fillColor=#dae8fc;strokeColor=#6c8ebf;" vertex="1" parent="1">
          <mxGeometry x="190" y="70" width="120" height="40" as="geometry" />
        </mxCell>
        <mxCell id="5sS7ZfewBmRh2sbd-nhQ-16" value="网络处理模块" style="rounded=1;whiteSpace=wrap;html=1;fillColor=#fff2cc;strokeColor=#d6b656;" vertex="1" parent="1">
          <mxGeometry x="190" y="150" width="120" height="40" as="geometry" />
        </mxCell>
        <mxCell id="5sS7ZfewBmRh2sbd-nhQ-17" value="concurrency并发控制模块" style="rounded=1;whiteSpace=wrap;html=1;fillColor=#60a917;fontColor=#ffffff;strokeColor=#2D7600;" vertex="1" parent="1">
          <mxGeometry x="150" y="230" width="180" height="40" as="geometry" />
        </mxCell>
        <mxCell id="5sS7ZfewBmRh2sbd-nhQ-20" value="" style="shape=doubleArrow;whiteSpace=wrap;html=1;direction=south;" vertex="1" parent="1">
          <mxGeometry x="242.5" y="190" width="15" height="40" as="geometry" />
        </mxCell>
        <mxCell id="5sS7ZfewBmRh2sbd-nhQ-21" value="" style="shape=doubleArrow;whiteSpace=wrap;html=1;direction=south;" vertex="1" parent="1">
          <mxGeometry x="240" y="380" width="15" height="60" as="geometry" />
        </mxCell>
        <mxCell id="5sS7ZfewBmRh2sbd-nhQ-22" value="" style="shape=doubleArrow;whiteSpace=wrap;html=1;direction=south;" vertex="1" parent="1">
          <mxGeometry x="240" y="270" width="15" height="70" as="geometry" />
        </mxCell>
        <mxCell id="5sS7ZfewBmRh2sbd-nhQ-23" value="index索引模块&lt;span style=&quot;white-space: pre;&quot;&gt;	&lt;/span&gt;" style="rounded=1;whiteSpace=wrap;html=1;fillColor=#1ba1e2;fontColor=#ffffff;strokeColor=#006EAF;" vertex="1" parent="1">
          <mxGeometry x="122.5" y="340" width="127.5" height="40" as="geometry" />
        </mxCell>
        <mxCell id="5sS7ZfewBmRh2sbd-nhQ-26" value="wriedtriger存储引擎" style="rounded=1;whiteSpace=wrap;html=1;fillColor=#008a00;fontColor=#ffffff;strokeColor=#005700;" vertex="1" parent="1">
          <mxGeometry x="150" y="440" width="210" height="40" as="geometry" />
        </mxCell>
        <mxCell id="5sS7ZfewBmRh2sbd-nhQ-29" value="write写模块" style="rounded=1;whiteSpace=wrap;html=1;fillColor=#60a917;fontColor=#ffffff;strokeColor=#2D7600;" vertex="1" parent="1">
          <mxGeometry x="330" y="230" width="140" height="40" as="geometry" />
        </mxCell>
        <mxCell id="5sS7ZfewBmRh2sbd-nhQ-30" value="query查询引擎模块" style="rounded=1;whiteSpace=wrap;html=1;fillColor=#60a917;fontColor=#ffffff;strokeColor=#2D7600;" vertex="1" parent="1">
          <mxGeometry x="10" y="230" width="140" height="40" as="geometry" />
        </mxCell>
        <mxCell id="5sS7ZfewBmRh2sbd-nhQ-31" value="storage存储模块" style="rounded=1;whiteSpace=wrap;html=1;fillColor=#1ba1e2;fontColor=#ffffff;strokeColor=#006EAF;" vertex="1" parent="1">
          <mxGeometry x="250" y="340" width="125" height="40" as="geometry" />
        </mxCell>
        <mxCell id="5sS7ZfewBmRh2sbd-nhQ-32" value="mongodb单机模块结构" style="rounded=1;whiteSpace=wrap;html=1;fillColor=#0050ef;fontColor=#ffffff;strokeColor=#001DBC;" vertex="1" parent="1">
          <mxGeometry x="-100" y="-25" width="150" height="40" as="geometry" />
        </mxCell>
      </root>
    </mxGraphModel>
  </diagram>
</mxfile>
